<svg xmlns="http://www.w3.org/2000/svg" viewBox="0 0 64 64" role="img" aria-label="Arctic Joiner">
  <rect width="64" height="64" rx="14" fill="#0f1117"/>
  <g transform="translate(32,32)" stroke="#8bd3ff" stroke-width="4.5" stroke-linecap="round" fill="none">
    <g><line x1="0" y1="0" x2="0" y2="-21"/><line x1="0" y1="-11" x2="-7" y2="-17"/><line x1="0" y1="-11" x2="7" y2="-17"/></g>
    <g transform="rotate(60)"><line x1="0" y1="0" x2="0" y2="-21"/><line x1="0" y1="-11" x2="-7" y2="-17"/><line x1="0" y1="-11" x2="7" y2="-17"/></g>
    <g transform="rotate(120)"><line x1="0" y1="0" x2="0" y2="-21"/><line x1="0" y1="-11" x2="-7" y2="-17"/><line x1="0" y1="-11" x2="7" y2="-17"/></g>
    <g transform="rotate(180)"><line x1="0" y1="0" x2="0" y2="-21"/><line x1="0" y1="-11" x2="-7" y2="-17"/><line x1="0" y1="-11" x2="7" y2="-17"/></g>
    <g transform="rotate(240)"><line x1="0" y1="0" x2="0" y2="-21"/><line x1="0" y1="-11" x2="-7" y2="-17"/><line x1="0" y1="-11" x2="7" y2="-17"/></g>
    <g transform="rotate(300)"><line x1="0" y1="0" x2="0" y2="-21"/><line x1="0" y1="-11" x2="-7" y2="-17"/><line x1="0" y1="-11" x2="7" y2="-17"/></g>
  </g>
  <circle cx="32" cy="32" r="4" fill="#8bd3ff"/>
</svg>